<svg width="35" height="34" viewBox="0 0 35 34" fill="none" xmlns="http://www.w3.org/2000/svg">
<ellipse cx="17.5" cy="17" rx="17.5" ry="17" fill="#7EDBD6"/>
<path d="M21 13.5L22.6675 14.3052L23 14.5L22.5 15L21.5 17V17.5L22 19L23.5 20.5L23 22L22.5 23L21 24.5H20L18 24L15.5 24.5L14.5 24L13 22.5L12 19L11.5 18L12 16L13 14L15 13.5L17.5 14L19 13.5H21Z" fill="white"/>
<path d="M23.5555 20.0093C23.0599 19.7092 22.0291 19.0841 22.0291 17.4582C22.0291 16.086 22.9392 15.3935 23.4279 15.0215L23.4382 15.0137C23.6344 14.8644 23.6812 14.5863 23.545 14.3799C22.4529 12.7253 20.5773 12.6775 20.2126 12.6844H20.2104C19.9603 12.6847 19.7217 12.7137 19.4954 12.7596C19.579 12.6922 19.6601 12.6203 19.7381 12.5441C20.5194 11.7813 20.9487 10.6559 20.9156 9.45543C20.9085 9.2021 20.7029 9 20.4516 9C19.6065 9 18.6457 9.50947 17.9439 10.3297C17.2369 11.1563 16.9066 12.1465 17.0381 13.0461C17.049 13.1207 17.0775 13.1888 17.1183 13.2472C16.9945 13.2054 16.8636 13.1567 16.7342 13.1085C16.2426 12.9258 15.6851 12.7187 15.1632 12.7187C15.1527 12.7187 14.0915 12.7265 13.0319 13.3906C12.1051 13.9719 11 15.1817 11 17.646C11 18.9276 11.4962 20.7218 12.2642 22.2174C12.7948 23.2508 13.8959 24.985 15.3099 24.9931H15.3251C16.3562 24.9931 17.2106 24.3787 17.7916 24.3787C18.784 24.3787 19.1372 25 20.2104 25C21.1725 25 22.1049 24.2625 22.9819 22.8084C23.3038 22.2743 23.5542 21.7461 23.7075 21.3969C24 20.7315 24 20.6428 24 20.5778C24 20.2789 23.774 20.1418 23.5555 20.0093ZM18.6469 10.942C19.028 10.4965 19.5081 10.1661 19.9628 10.0202C19.8758 10.7477 19.5712 11.4033 19.0923 11.8706C18.7568 12.1983 18.3541 12.4113 17.9451 12.4848C17.9885 11.97 18.2324 11.4265 18.6469 10.942ZM22.1436 22.3949C21.4809 23.4707 20.7943 24.0629 20.2104 24.0629C19.4072 24.0629 19.0317 23.4416 17.7916 23.4416C16.9549 23.4416 16.1565 24.0604 15.3152 24.056C14.6589 24.0523 13.8058 23.1827 13.0889 21.7864C12.384 20.4142 11.9287 18.7889 11.9287 17.646C11.9287 16.0279 12.4558 14.87 13.4947 14.204C14.3036 13.6858 15.131 13.6567 15.166 13.6558C15.8909 13.6577 16.8973 14.3052 17.6306 14.3052C18.2909 14.3052 19.175 13.6215 20.2139 13.6215H20.2309C20.4829 13.6165 21.6725 13.6449 22.5083 14.5601C21.9176 15.0621 21.1004 15.9648 21.1004 17.4582C21.1004 19.4867 22.3718 20.3773 22.9723 20.7487C22.8228 21.1142 22.5377 21.7555 22.1436 22.3949Z" fill="white"/>
<path d="M18 11L19.5 10L20.5 9.5V10L19.5 12L17.5 13V12.5L18 11Z" fill="white"/>
</svg>
