<svg width="35" height="34" viewBox="0 0 35 34" fill="none" xmlns="http://www.w3.org/2000/svg">
<ellipse cx="17.5" cy="17" rx="17.5" ry="17" fill="#F34A38"/>
<path d="M15.1567 17.8721H17.3667C16.9788 18.9688 15.9281 19.7552 14.6981 19.7461C13.2056 19.7351 11.9715 18.5411 11.9135 17.0497C11.8514 15.451 13.134 14.1306 14.7192 14.1306C15.444 14.1306 16.1054 14.4068 16.604 14.8593C16.7221 14.9665 16.9019 14.9672 17.018 14.8578L17.8298 14.0939C17.9567 13.9744 17.9572 13.7726 17.8306 13.6527C17.0398 12.9035 15.979 12.4365 14.8092 12.4137C12.3142 12.365 10.2111 14.4107 10.1937 16.9061C10.1762 19.4204 12.209 21.464 14.7192 21.464C17.1331 21.464 19.1051 19.5739 19.2372 17.193C19.2407 17.1631 19.2431 16.1543 19.2431 16.1543H15.1567C14.9892 16.1543 14.8534 16.29 14.8534 16.4575V17.5688C14.8534 17.7363 14.9892 17.8721 15.1567 17.8721Z" fill="white"/>
<path d="M22.9879 16.2552V15.1694C22.9879 15.0227 22.869 14.9037 22.7222 14.9037H21.8083C21.6615 14.9037 21.5426 15.0227 21.5426 15.1694V16.2552H20.4568C20.31 16.2552 20.191 16.3742 20.191 16.521V17.4348C20.191 17.5816 20.31 17.7006 20.4568 17.7006H21.5426V18.7863C21.5426 18.9331 21.6615 19.0521 21.8083 19.0521H22.7222C22.869 19.0521 22.9879 18.9331 22.9879 18.7863V17.7006H24.0737C24.2205 17.7006 24.3395 17.5816 24.3395 17.4348V16.521C24.3395 16.3742 24.2205 16.2552 24.0737 16.2552H22.9879Z" fill="white"/>
</svg>
