<svg width="170" height="170" viewBox="0 0 170 170" fill="none" xmlns="http://www.w3.org/2000/svg">
<path d="M85 170C131.944 170 170 131.944 170 85C170 38.0558 131.944 0 85 0C38.0558 0 0 38.0558 0 85C0 131.944 38.0558 170 85 170Z" fill="#A3EBFF"/>
<path d="M170 84.9999C170 84.5583 169.99 84.1193 169.983 83.6794L110.252 23.9489C110.252 23.9489 66.4059 7.9686 61.4254 47.4803C56.445 86.992 44.6665 141.769 44.6665 141.769L72.0023 169.011C76.2397 169.662 80.58 170 84.9997 170C131.944 170 170 131.944 170 84.9999Z" fill="#8AD9EE"/>
<path d="M118.928 70.7276H105.445V46.5816C105.445 35.3085 96.2735 26.1371 85.0001 26.1371C73.7266 26.1371 64.5552 35.3085 64.5552 46.5816V70.7276H51.0718V46.5816C51.0718 27.8736 66.2921 12.6533 85.0001 12.6533C103.708 12.6533 118.928 27.8733 118.928 46.5816V70.7276Z" fill="#F4F2EF"/>
<path d="M118.927 46.5805V70.7292H105.443V46.5805C105.443 35.3081 96.2725 26.1374 85 26.1374V12.6536C103.707 12.6536 118.927 27.8739 118.927 46.5805Z" fill="#E5E1DC"/>
<path d="M109.707 148.086H60.2931C47.8748 148.086 37.8076 138.018 37.8076 125.6V69.2966H132.193V125.6C132.193 138.018 122.126 148.086 109.707 148.086Z" fill="#FEF2B2"/>
<path d="M132.192 69.2983V125.601C132.192 138.019 122.124 148.086 109.706 148.086H85V69.2983H132.192Z" fill="#FFC85C"/>
<path d="M97.4334 99.6596C97.4334 92.7928 91.8669 87.2263 85.0001 87.2263C78.1334 87.2263 72.5669 92.7928 72.5669 99.6596C72.5669 104.305 75.1159 108.352 78.8894 110.486V131.049H91.1105V110.486C94.8844 108.352 97.4334 104.304 97.4334 99.6596Z" fill="#655665"/>
<path d="M97.4346 99.6593C97.4346 104.304 94.8846 108.352 91.1094 110.487V131.05H85V87.228C91.8664 87.228 97.4346 92.7929 97.4346 99.6593Z" fill="#493E49"/>
</svg>
