<svg width="61" height="61" viewBox="0 0 61 61" fill="none" xmlns="http://www.w3.org/2000/svg">
<path d="M30.5 61.0001C47.3447 61.0001 61.0001 47.3447 61.0001 30.5C61.0001 13.6553 47.3447 0 30.5 0C13.6553 0 0 13.6553 0 30.5C0 47.3447 13.6553 61.0001 30.5 61.0001Z" fill="#A3EBFF"/>
<path d="M60.5955 32.5401C60.5955 31.9726 60.5787 31.4092 60.5482 30.8496L43.9634 13.7014L42.0993 22.031H31.9669L30.1938 20.258L28.9722 22.4936L26.7365 20.258L25.5005 22.4795L23.279 20.258L22.296 22.0227L16.6802 20.258L17.395 27.1643L10.1274 32.5401L16.6802 40.9846C18.5864 43.01 28.4207 59.605 30.1938 61.0003C44.6783 61.0003 60.5955 49.3847 60.5955 32.5401Z" fill="#8AD9EE"/>
<path d="M16.2892 26.513C13.5255 19.5748 16.9125 13.9055 17.058 13.6676L17.9121 12.2712L24.0481 19.4029L16.2892 26.513Z" fill="#FFAB00"/>
<path d="M18.5055 25.6304C17.5407 23.2082 17.3417 20.6784 17.9139 18.1112C18.0522 17.4908 18.2215 16.942 18.3882 16.4819L22.2401 20.9589L18.5055 25.6304Z" fill="#D37B93"/>
<path d="M44.5928 26.513C47.3565 19.5748 43.9695 13.9055 43.8241 13.6676L42.9699 12.2712L36.8339 19.4029L44.5928 26.513Z" fill="#BD7F00"/>
<path d="M42.3762 25.6302C43.3409 23.208 43.5401 20.6782 42.9678 18.111C42.8296 17.4906 42.6603 16.9418 42.4936 16.4817L38.6416 20.9587L42.3762 25.6302Z" fill="#9D5B6E"/>
<path d="M30.4409 48.3495C28.2342 48.3495 27.0427 46.7965 25.7813 45.1525C25.2232 44.4251 24.6461 43.6729 23.9211 42.9478C21.6295 40.6564 11.5825 33.8092 11.4812 33.7402L10.0083 32.7377L11.4966 31.758C13.2205 30.6235 14.3931 28.6982 15.6349 26.6598C16.9609 24.4827 18.3322 22.2316 20.5647 20.4504C23.1285 18.405 26.359 17.4106 30.441 17.4106C34.5228 17.4106 37.7534 18.405 40.3172 20.4504C42.5498 22.2316 43.9211 24.4827 45.2471 26.6598C46.4887 28.6982 47.6615 30.6235 49.3853 31.758L50.8737 32.7377L49.4007 33.7403C49.2995 33.8093 39.2524 40.6564 36.9609 42.9479C36.2359 43.6729 35.6588 44.4251 35.1006 45.1525C33.8391 46.7966 32.6477 48.3495 30.4409 48.3495Z" fill="#FFAB00"/>
<path d="M35.1006 45.1522C35.6588 44.4247 36.2358 43.6726 36.9609 42.9476C39.2525 40.656 49.2995 33.8089 49.4007 33.74L50.8737 32.7374C50.8731 32.7373 44.2133 30.7231 38.3402 30.7231C32.0909 30.7231 32.8878 43.1547 33.0157 47.4535C33.7959 46.8521 34.4387 46.015 35.1006 45.1522Z" fill="#EFC589"/>
<path d="M25.7813 45.153C25.2232 44.4256 24.6461 43.6734 23.9211 42.9483C21.6295 40.6569 11.5825 33.8097 11.4812 33.7407L10.0083 32.7382C10.0089 32.738 16.6687 30.7239 22.5417 30.7239C28.7912 30.7239 27.9941 43.1555 27.8663 47.4542C27.0861 46.8529 26.4432 46.0158 25.7813 45.153Z" fill="#EFC589"/>
<path d="M40.2676 34.5886C40.2676 33.8252 39.6563 33.2063 38.9034 33.2063C38.1497 33.2063 37.5382 33.8252 37.5382 34.5886C37.5382 35.352 38.1496 35.9709 38.9034 35.9709C39.6563 35.9709 40.2676 35.352 40.2676 34.5886Z" fill="#333333"/>
<path d="M23.3436 34.5891C23.3436 33.8257 22.7323 33.2068 21.9794 33.2068C21.2257 33.2068 20.6141 33.8257 20.6141 34.5891C20.6141 35.3525 21.2255 35.9714 21.9794 35.9714C22.7323 35.9713 23.3436 35.3525 23.3436 34.5891Z" fill="#333333"/>
<path d="M30.4405 48.7695C29.508 48.7695 28.6745 48.037 28.3594 47.7221C28.0431 47.4059 27.3074 46.5684 27.3074 45.622C27.3074 44.8477 27.693 44.2591 28.3933 43.9645C28.86 43.768 29.4532 43.688 30.4404 43.688C31.4277 43.688 32.0208 43.768 32.4877 43.9645C33.1879 44.2591 33.5736 44.8477 33.5736 45.622C33.5736 46.5684 32.8378 47.4059 32.5215 47.7221C32.2065 48.0369 31.3729 48.7695 30.4405 48.7695Z" fill="#211915"/>
<path d="M33.6112 17.6362H33.6114H33.6112ZM33.5691 17.6298C33.5694 17.6298 33.5695 17.6299 33.5696 17.6299C33.5694 17.6299 33.5695 17.6299 33.5691 17.6298ZM33.5273 17.6236C33.5276 17.6236 33.5273 17.6236 33.5276 17.6236H33.5273ZM33.4847 17.6174C33.4852 17.6175 33.4856 17.6175 33.486 17.6176C33.4856 17.6176 33.4851 17.6175 33.4847 17.6174ZM33.4418 17.6113C33.4425 17.6113 33.4436 17.6115 33.4442 17.6116C33.4435 17.6115 33.4426 17.6114 33.4418 17.6113ZM33.3998 17.6054C33.4004 17.6054 33.4012 17.6056 33.4019 17.6057C33.4011 17.6055 33.4005 17.6054 33.3998 17.6054ZM33.3575 17.5995C33.3581 17.5996 33.3588 17.5997 33.3595 17.5998C33.3588 17.5998 33.358 17.5996 33.3575 17.5995ZM33.3305 17.5959C33.331 17.5959 33.331 17.5959 33.3314 17.596C33.3311 17.5959 33.3308 17.5959 33.3305 17.5959ZM33.3148 17.5937C33.3157 17.5938 33.3163 17.5939 33.3173 17.594C33.3164 17.5939 33.3157 17.5939 33.3148 17.5937ZM33.288 17.5901C33.2885 17.5902 33.2887 17.5902 33.2891 17.5903C33.2887 17.5902 33.2885 17.5902 33.288 17.5901ZM33.2736 17.5882C33.2738 17.5882 33.2741 17.5883 33.2743 17.5883C33.2742 17.5883 33.2738 17.5882 33.2736 17.5882ZM33.2457 17.5845C33.2461 17.5846 33.2461 17.5846 33.2466 17.5846C33.2461 17.5845 33.2461 17.5845 33.2457 17.5845ZM33.2024 17.5789C33.2033 17.579 33.2044 17.5792 33.2053 17.5793C33.2043 17.5792 33.2033 17.579 33.2024 17.5789ZM33.1598 17.5735C33.1607 17.5736 33.1616 17.5738 33.1625 17.5738C33.1615 17.5738 33.1607 17.5736 33.1598 17.5735ZM33.1166 17.5681C33.118 17.5682 33.1188 17.5683 33.1201 17.5685C33.1191 17.5683 33.1176 17.5682 33.1166 17.5681ZM33.0739 17.5628C33.075 17.563 33.0759 17.5631 33.077 17.5632C33.076 17.5631 33.0749 17.5629 33.0739 17.5628ZM33.03 17.5575C33.0316 17.5577 33.0334 17.5579 33.0349 17.5581C33.0333 17.5579 33.0316 17.5577 33.03 17.5575ZM33.004 17.5544C33.0042 17.5544 33.0046 17.5545 33.0049 17.5545C33.0045 17.5545 33.0042 17.5545 33.004 17.5544ZM32.9871 17.5524C32.9887 17.5526 32.9903 17.5528 32.9919 17.553C32.9903 17.5528 32.9887 17.5527 32.9871 17.5524ZM32.9441 17.5475C32.9455 17.5477 32.9469 17.5478 32.9483 17.548C32.9469 17.5478 32.9455 17.5477 32.9441 17.5475ZM32.9176 17.5445C32.9187 17.5446 32.9197 17.5447 32.9209 17.5449C32.9198 17.5447 32.9187 17.5445 32.9176 17.5445ZM32.9011 17.5425C32.9025 17.5427 32.9038 17.5429 32.9052 17.543C32.9037 17.5429 32.9024 17.5427 32.9011 17.5425ZM32.8744 17.5397C32.8752 17.5397 32.8767 17.5399 32.8776 17.5401C32.8766 17.5399 32.8754 17.5397 32.8744 17.5397ZM32.8576 17.5378C32.8592 17.5379 32.8604 17.5381 32.862 17.5382C32.8605 17.5381 32.8591 17.5379 32.8576 17.5378ZM32.8305 17.5348C32.8321 17.535 32.8338 17.5352 32.8354 17.5354C32.8338 17.5351 32.8322 17.535 32.8305 17.5348ZM32.8141 17.533C32.8155 17.5332 32.8172 17.5334 32.8186 17.5335C32.8171 17.5334 32.8156 17.5332 32.8141 17.533ZM32.7874 17.5302C32.7888 17.5303 32.7903 17.5305 32.7918 17.5307C32.7902 17.5304 32.789 17.5303 32.7874 17.5302ZM32.7705 17.5283C32.7721 17.5285 32.7736 17.5287 32.7751 17.5288C32.7736 17.5287 32.772 17.5285 32.7705 17.5283ZM32.7431 17.5255C32.7455 17.5257 32.7472 17.5259 32.7495 17.5261C32.7474 17.5259 32.7452 17.5257 32.7431 17.5255ZM32.7258 17.5236C32.7279 17.5239 32.7296 17.524 32.7317 17.5243C32.7297 17.524 32.7278 17.5239 32.7258 17.5236ZM32.6992 17.5209C32.7015 17.5212 32.7043 17.5214 32.7065 17.5216C32.7041 17.5214 32.7016 17.5212 32.6992 17.5209ZM32.6806 17.5191C32.6832 17.5193 32.6858 17.5196 32.6883 17.5199C32.6858 17.5196 32.6832 17.5193 32.6806 17.5191ZM32.6551 17.5165C32.6577 17.5168 32.6604 17.5171 32.6629 17.5173C32.6602 17.517 32.6578 17.5168 32.6551 17.5165ZM32.6359 17.5146C32.6387 17.5148 32.6418 17.5152 32.6445 17.5155C32.6416 17.5152 32.6387 17.5148 32.6359 17.5146ZM32.6118 17.5122C32.6142 17.5125 32.6162 17.5126 32.6186 17.5129C32.6163 17.5127 32.6142 17.5125 32.6118 17.5122ZM32.5676 17.5079C32.5701 17.5081 32.5725 17.5084 32.5751 17.5086C32.5725 17.5084 32.5699 17.5081 32.5676 17.5079ZM32.5419 17.5055C32.5451 17.5058 32.5487 17.5061 32.5519 17.5065C32.5483 17.5061 32.5454 17.5058 32.5419 17.5055ZM32.5235 17.5038C32.526 17.504 32.5287 17.5042 32.5312 17.5045C32.5286 17.5042 32.526 17.504 32.5235 17.5038ZM32.4981 17.5014C32.5004 17.5017 32.5032 17.5019 32.5055 17.5022C32.503 17.5018 32.5007 17.5017 32.4981 17.5014ZM32.4789 17.4997C32.4817 17.4999 32.4845 17.5002 32.4873 17.5005C32.4843 17.5002 32.4818 17.4999 32.4789 17.4997ZM32.4537 17.4974C32.4568 17.4977 32.4599 17.498 32.4629 17.4982C32.4599 17.498 32.4568 17.4977 32.4537 17.4974ZM32.4355 17.4958C32.438 17.496 32.4403 17.4962 32.4429 17.4964C32.4404 17.4963 32.4379 17.496 32.4355 17.4958ZM32.4096 17.4935C32.4124 17.4938 32.415 17.494 32.4178 17.4943C32.415 17.494 32.4124 17.4938 32.4096 17.4935ZM32.3907 17.4919C32.3935 17.4921 32.3961 17.4923 32.3989 17.4926C32.3962 17.4923 32.3935 17.4921 32.3907 17.4919ZM32.3652 17.4897C32.368 17.4899 32.3706 17.4902 32.3735 17.4904C32.3707 17.4902 32.3679 17.4899 32.3652 17.4897ZM32.3453 17.488C32.3484 17.4883 32.3516 17.4886 32.3546 17.4888C32.3515 17.4885 32.3484 17.4883 32.3453 17.488ZM32.3204 17.4859C32.3237 17.4861 32.3269 17.4864 32.3302 17.4867C32.327 17.4864 32.3236 17.4862 32.3204 17.4859ZM32.2983 17.484C32.3025 17.4844 32.3066 17.4848 32.3108 17.4851C32.3066 17.4848 32.3026 17.4844 32.2983 17.484ZM32.2759 17.4823C32.2794 17.4826 32.2826 17.4828 32.2861 17.4831C32.2828 17.4828 32.2793 17.4825 32.2759 17.4823ZM32.2543 17.4805C32.2583 17.4808 32.2619 17.4812 32.2658 17.4814C32.262 17.4811 32.2582 17.4808 32.2543 17.4805ZM32.2313 17.4787C32.2346 17.4789 32.2378 17.4792 32.241 17.4795C32.2378 17.4792 32.2346 17.4789 32.2313 17.4787ZM32.2057 17.4767C32.2111 17.4771 32.2164 17.4775 32.2218 17.478C32.2164 17.4776 32.211 17.4772 32.2057 17.4767ZM32.1866 17.4753C32.1899 17.4755 32.1936 17.4758 32.1969 17.4761C32.1933 17.4757 32.1901 17.4755 32.1866 17.4753ZM32.161 17.4733C32.1664 17.4737 32.1715 17.4741 32.1769 17.4745C32.1717 17.4741 32.1662 17.4737 32.161 17.4733ZM32.1418 17.4718C32.1451 17.4721 32.1486 17.4723 32.1519 17.4725C32.1484 17.4724 32.1452 17.4721 32.1418 17.4718ZM32.1159 17.4699C32.1215 17.4703 32.1271 17.4707 32.1326 17.4712C32.127 17.4708 32.1216 17.4704 32.1159 17.4699ZM32.0962 17.4685C32.1002 17.4688 32.1041 17.469 32.1081 17.4694C32.1041 17.4691 32.1 17.4688 32.0962 17.4685ZM32.0709 17.4667C32.0766 17.4671 32.0822 17.4675 32.0879 17.4679C32.0821 17.4675 32.0767 17.4671 32.0709 17.4667ZM32.0508 17.4653C32.0548 17.4655 32.0591 17.4658 32.063 17.4662C32.059 17.4658 32.0548 17.4655 32.0508 17.4653ZM32.0263 17.4636C32.032 17.464 32.0377 17.4644 32.0433 17.4648C32.0377 17.4643 32.0321 17.4639 32.0263 17.4636ZM32.0057 17.4622C32.0097 17.4624 32.0141 17.4627 32.018 17.463C32.0139 17.4627 32.0099 17.4624 32.0057 17.4622ZM31.9808 17.4605C31.986 17.4608 31.9915 17.4612 31.9967 17.4615C31.9915 17.4612 31.9861 17.4608 31.9808 17.4605ZM31.96 17.4591C31.9645 17.4594 31.9687 17.4596 31.9731 17.4599C31.9688 17.4597 31.9643 17.4594 31.96 17.4591ZM31.9357 17.4575C31.9409 17.4578 31.9461 17.4581 31.9513 17.4585C31.9463 17.4582 31.9408 17.4579 31.9357 17.4575ZM31.9146 17.4562C31.9193 17.4565 31.9235 17.4567 31.9282 17.4571C31.9237 17.4568 31.9193 17.4565 31.9146 17.4562ZM31.8908 17.4547C31.8953 17.455 31.8999 17.4552 31.9043 17.4555C31.8997 17.4553 31.8952 17.455 31.8908 17.4547ZM31.8673 17.4532C31.8726 17.4535 31.8778 17.4539 31.8829 17.4542C31.8778 17.4539 31.8724 17.4535 31.8673 17.4532ZM31.8454 17.4519C31.8502 17.4522 31.855 17.4524 31.8596 17.4528C31.855 17.4525 31.85 17.4522 31.8454 17.4519ZM31.8214 17.4504C31.8269 17.4508 31.8325 17.4511 31.8379 17.4514C31.8322 17.4512 31.827 17.4508 31.8214 17.4504ZM31.8 17.4492C31.8045 17.4494 31.8091 17.4497 31.8135 17.45C31.809 17.4497 31.8045 17.4495 31.8 17.4492ZM31.7744 17.4477C31.7804 17.448 31.7865 17.4484 31.7925 17.4488C31.7865 17.4484 31.7804 17.448 31.7744 17.4477ZM31.7541 17.4466C31.7589 17.4468 31.7637 17.4472 31.7684 17.4474C31.7638 17.4471 31.7588 17.4468 31.7541 17.4466ZM31.7292 17.4452C31.7352 17.4455 31.7415 17.4459 31.7475 17.4462C31.7415 17.4459 31.7353 17.4455 31.7292 17.4452ZM31.7083 17.4441C31.7131 17.4443 31.718 17.4446 31.7228 17.4448C31.718 17.4445 31.7131 17.4443 31.7083 17.4441ZM31.6836 17.4427C31.6898 17.443 31.6957 17.4433 31.702 17.4437C31.696 17.4433 31.6897 17.443 31.6836 17.4427ZM31.6631 17.4417C31.6676 17.4419 31.6722 17.4421 31.6767 17.4424C31.6722 17.4421 31.6676 17.4419 31.6631 17.4417ZM31.6381 17.4404C31.6441 17.4407 31.6504 17.441 31.6564 17.4413C31.6503 17.4409 31.6442 17.4406 31.6381 17.4404ZM31.6169 17.4393C31.6217 17.4395 31.6265 17.4397 31.6312 17.44C31.6264 17.4397 31.6217 17.4395 31.6169 17.4393ZM31.5922 17.4381C31.5984 17.4384 31.6047 17.4387 31.6109 17.4389C31.6047 17.4386 31.5983 17.4384 31.5922 17.4381ZM31.5701 17.4369C31.5754 17.4372 31.5806 17.4374 31.5858 17.4377C31.5806 17.4375 31.5752 17.4372 31.5701 17.4369ZM31.5468 17.4358C31.553 17.4361 31.5593 17.4364 31.5656 17.4367C31.5592 17.4365 31.553 17.4361 31.5468 17.4358ZM31.5245 17.4349C31.5296 17.4351 31.5347 17.4354 31.5397 17.4356C31.5346 17.4354 31.5296 17.4351 31.5245 17.4349ZM31.5008 17.4338C31.5071 17.4342 31.5133 17.4344 31.5196 17.4347C31.5132 17.4344 31.5071 17.4342 31.5008 17.4338ZM31.4784 17.4329C31.4834 17.4331 31.4886 17.4334 31.4936 17.4335C31.4886 17.4333 31.4834 17.433 31.4784 17.4329ZM31.4554 17.4318C31.4615 17.4321 31.4671 17.4323 31.4731 17.4326C31.4673 17.4323 31.4612 17.4321 31.4554 17.4318ZM31.4328 17.4309C31.4377 17.431 31.4427 17.4313 31.4474 17.4315C31.4426 17.4313 31.4377 17.4311 31.4328 17.4309ZM31.409 17.4299C31.4141 17.4302 31.4194 17.4303 31.4244 17.4306C31.4193 17.4303 31.4141 17.4301 31.409 17.4299ZM31.3826 17.4289C31.3889 17.4291 31.3957 17.4294 31.402 17.4297C31.3957 17.4294 31.3889 17.4291 31.3826 17.4289ZM31.3625 17.4281C31.3686 17.4283 31.3744 17.4286 31.3804 17.4288C31.3745 17.4285 31.3685 17.4283 31.3625 17.4281ZM31.3369 17.4271C31.3434 17.4273 31.3497 17.4275 31.3562 17.4278C31.3497 17.4275 31.3433 17.4273 31.3369 17.4271ZM31.3162 17.4263C31.3218 17.4266 31.3271 17.4267 31.3327 17.427C31.3273 17.4267 31.3216 17.4265 31.3162 17.4263ZM31.2905 17.4254C31.2971 17.4256 31.3034 17.4259 31.3101 17.4261C31.3034 17.4259 31.297 17.4256 31.2905 17.4254ZM31.2697 17.4247C31.2753 17.4248 31.281 17.4251 31.2866 17.4252C31.2809 17.4251 31.2754 17.4248 31.2697 17.4247ZM31.2444 17.4238C31.2509 17.424 31.2575 17.4243 31.2641 17.4244C31.2575 17.4243 31.2509 17.424 31.2444 17.4238ZM31.223 17.4231C31.2288 17.4232 31.2341 17.4235 31.2399 17.4236C31.2342 17.4235 31.2287 17.4233 31.223 17.4231ZM31.1978 17.4223C31.2044 17.4225 31.2113 17.4227 31.2178 17.4229C31.2112 17.4227 31.2045 17.4225 31.1978 17.4223ZM31.1765 17.4216C31.1821 17.4218 31.1878 17.4219 31.1934 17.4222C31.1878 17.4219 31.1821 17.4218 31.1765 17.4216ZM31.1517 17.4209C31.1583 17.4211 31.1648 17.4213 31.1714 17.4215C31.165 17.4213 31.1583 17.4211 31.1517 17.4209ZM31.1298 17.4203C31.1352 17.4204 31.141 17.4206 31.1464 17.4207C31.1409 17.4206 31.1354 17.4204 31.1298 17.4203ZM31.1049 17.4195C31.1117 17.4197 31.1181 17.4199 31.125 17.4201C31.1183 17.4199 31.1116 17.4197 31.1049 17.4195ZM31.0824 17.4189C31.0883 17.4191 31.0943 17.4192 31.1002 17.4194C31.0942 17.4192 31.0883 17.4191 31.0824 17.4189ZM31.0586 17.4184C31.0655 17.4185 31.072 17.4187 31.0788 17.4188C31.0721 17.4187 31.0654 17.4185 31.0586 17.4184ZM31.0355 17.4177C31.0414 17.4179 31.0475 17.418 31.0533 17.4182C31.0473 17.418 31.0414 17.4179 31.0355 17.4177ZM31.0118 17.4172C31.0187 17.4173 31.0251 17.4175 31.032 17.4176C31.0253 17.4175 31.0186 17.4173 31.0118 17.4172ZM30.9886 17.4166C30.9945 17.4168 31.0005 17.4168 31.0065 17.417C31.0005 17.4169 30.9945 17.4168 30.9886 17.4166ZM30.9654 17.4161C30.972 17.4163 30.9787 17.4164 30.9853 17.4165C30.9788 17.4164 30.972 17.4163 30.9654 17.4161ZM30.9417 17.4156C30.9476 17.4157 30.9535 17.4159 30.9594 17.416C30.9536 17.4159 30.9475 17.4157 30.9417 17.4156ZM30.9184 17.4152C30.9243 17.4152 30.9305 17.4154 30.9363 17.4155C30.9302 17.4154 30.9246 17.4152 30.9184 17.4152ZM30.8924 17.4147C30.899 17.4148 30.906 17.4149 30.9127 17.4151C30.9059 17.4149 30.8991 17.4148 30.8924 17.4147ZM30.8716 17.4144C30.8777 17.4144 30.8839 17.4146 30.89 17.4147C30.8838 17.4145 30.8778 17.4144 30.8716 17.4144ZM30.8456 17.414C30.8526 17.414 30.859 17.4142 30.8659 17.4143C30.8591 17.4141 30.8524 17.414 30.8456 17.414ZM30.8238 17.4136C30.83 17.4136 30.8363 17.4137 30.8424 17.4139C30.8363 17.4138 30.83 17.4136 30.8238 17.4136ZM30.7985 17.4132C30.8055 17.4132 30.8123 17.4134 30.8191 17.4135C30.8122 17.4134 30.8056 17.4133 30.7985 17.4132ZM30.7771 17.4129C30.783 17.413 30.7888 17.4131 30.7948 17.4132C30.7888 17.4131 30.7831 17.413 30.7771 17.4129ZM30.7518 17.4125C30.7585 17.4126 30.7652 17.4127 30.772 17.4128C30.7652 17.4128 30.7586 17.4127 30.7518 17.4125ZM30.7296 17.4123C30.7352 17.4124 30.7411 17.4124 30.7468 17.4125C30.7411 17.4124 30.7354 17.4124 30.7296 17.4123ZM30.7044 17.412C30.7114 17.412 30.7181 17.4121 30.725 17.4122C30.718 17.4121 30.7113 17.412 30.7044 17.412ZM30.6824 17.4118C30.6884 17.4119 30.6939 17.4119 30.6998 17.412C30.694 17.4119 30.6881 17.4118 30.6824 17.4118ZM30.6571 17.4116C30.664 17.4116 30.6708 17.4117 30.6778 17.4117C30.6707 17.4116 30.664 17.4116 30.6571 17.4116ZM30.6339 17.4113C30.6401 17.4114 30.6466 17.4114 30.6528 17.4115C30.6466 17.4115 30.6401 17.4114 30.6339 17.4113ZM30.6097 17.4112C30.6169 17.4112 30.6236 17.4112 30.6308 17.4113C30.6237 17.4112 30.6167 17.4112 30.6097 17.4112ZM30.5861 17.411C30.5923 17.411 30.5989 17.4111 30.6051 17.4111C30.5987 17.4111 30.5926 17.4111 30.5861 17.411ZM30.5625 17.4109C30.5695 17.4109 30.5765 17.411 30.5835 17.411C30.5766 17.411 30.5695 17.4109 30.5625 17.4109ZM30.5384 17.4108C30.5446 17.4108 30.5512 17.4108 30.5574 17.4108C30.5512 17.4108 30.5448 17.4108 30.5384 17.4108ZM30.515 17.4107C30.522 17.4107 30.5288 17.4107 30.5359 17.4108C30.5289 17.4108 30.5221 17.4108 30.515 17.4107ZM30.4901 17.4107C30.4966 17.4107 30.5031 17.4107 30.5096 17.4107C30.5031 17.4107 30.4967 17.4107 30.4901 17.4107ZM30.4675 17.4106C30.4746 17.4106 30.4815 17.4106 30.4885 17.4106C30.4815 17.4106 30.4746 17.4106 30.4675 17.4106ZM30.441 17.4106C30.4481 17.4106 30.4553 17.4106 30.4624 17.4106C30.4552 17.4106 30.4481 17.4106 30.441 17.4106ZM43.8282 13.6747C43.8282 13.6748 43.8282 13.6749 43.8283 13.6749C43.8282 13.6749 43.8282 13.6748 43.8282 13.6747ZM43.8264 13.6718C43.8265 13.6719 43.8266 13.6721 43.8267 13.6722C43.8266 13.6721 43.8265 13.672 43.8264 13.6718ZM43.8245 13.6687C43.825 13.6695 43.8255 13.6704 43.826 13.6713C43.8255 13.6704 43.8251 13.6695 43.8245 13.6687ZM42.9697 12.2712L43.8239 13.6676C43.824 13.6678 43.8241 13.668 43.8243 13.6682C43.8241 13.668 43.824 13.6678 43.8239 13.6676L42.9697 12.2712Z" fill="#BDBDBF"/>
<path d="M33.0061 47.1514C32.8265 47.4029 32.6435 47.6009 32.5221 47.7221C32.4759 47.7683 32.4185 47.8235 32.3513 47.8841C32.5847 47.7604 32.8053 47.6154 33.0157 47.4532C33.0128 47.3567 33.0096 47.2562 33.0061 47.1514ZM30.441 17.4106V43.6881C31.4284 43.6881 32.0215 43.7682 32.4883 43.9646C32.6501 44.0327 32.7952 44.1165 32.9225 44.2146C32.842 38.8303 33.2934 30.7233 38.3402 30.7233C44.2132 30.7233 50.8731 32.7374 50.8736 32.7376L49.4007 33.7402L50.8737 32.7376L49.3853 31.7579C47.6614 30.6234 46.4888 28.6981 45.2471 26.6597C45.1015 26.4205 44.9552 26.1805 44.8073 25.9403C44.2642 25.0576 43.699 24.1727 43.0583 23.3213C42.2859 22.2948 41.4035 21.3169 40.3173 20.4504C40.0713 20.2541 39.8194 20.0677 39.5609 19.8906C38.8933 19.4335 38.1834 19.0405 37.4289 18.7111C36.2663 18.2034 34.9974 17.8461 33.6114 17.6362H33.6112C33.5974 17.6341 33.5835 17.632 33.5697 17.63C33.5695 17.63 33.5694 17.63 33.5692 17.6299C33.5554 17.6278 33.5415 17.6257 33.5276 17.6237C33.5273 17.6237 33.5276 17.6237 33.5273 17.6237C33.5135 17.6217 33.4999 17.6197 33.486 17.6177C33.4855 17.6176 33.4851 17.6175 33.4847 17.6175C33.4713 17.6156 33.4577 17.6136 33.4443 17.6117C33.4437 17.6116 33.4426 17.6114 33.4419 17.6114C33.4287 17.6094 33.4153 17.6076 33.4019 17.6057C33.4013 17.6056 33.4005 17.6055 33.3998 17.6054C33.3863 17.6035 33.373 17.6016 33.3595 17.5998C33.3588 17.5997 33.3582 17.5996 33.3575 17.5996C33.3488 17.5984 33.3401 17.5972 33.3314 17.596C33.3309 17.5959 33.3309 17.5959 33.3305 17.5958C33.3261 17.5952 33.3216 17.5946 33.3173 17.594C33.3164 17.5939 33.3157 17.5937 33.3148 17.5936C33.3062 17.5924 33.2976 17.5913 33.289 17.5902C33.2885 17.5901 33.2884 17.5901 33.288 17.5901C33.2834 17.5894 33.2788 17.5889 33.2742 17.5882C33.274 17.5882 33.2738 17.5881 33.2735 17.5881C33.2645 17.5869 33.2554 17.5857 33.2464 17.5845C33.2459 17.5845 33.2459 17.5845 33.2454 17.5845C33.232 17.5827 33.2184 17.581 33.205 17.5792C33.2042 17.5791 33.203 17.579 33.2022 17.5788C33.1889 17.5771 33.1756 17.5754 33.1623 17.5737C33.1615 17.5736 33.1605 17.5735 33.1596 17.5734C33.1464 17.5717 33.1333 17.57 33.12 17.5683C33.1186 17.5682 33.1178 17.5681 33.1164 17.5679C33.1033 17.5663 33.09 17.5647 33.0768 17.5631C33.0757 17.5629 33.0749 17.5628 33.0737 17.5627C33.0607 17.5611 33.0479 17.5596 33.0348 17.558C33.0332 17.5578 33.0314 17.5576 33.0298 17.5574C33.0215 17.5565 33.0131 17.5554 33.0047 17.5545C33.0045 17.5545 33.0041 17.5544 33.0038 17.5544C32.9998 17.5539 32.9957 17.5534 32.9918 17.5529C32.9902 17.5528 32.9885 17.5525 32.9869 17.5524C32.974 17.5509 32.9611 17.5493 32.9482 17.5478C32.9468 17.5477 32.9454 17.5475 32.944 17.5474C32.9362 17.5465 32.9286 17.5456 32.9208 17.5447C32.9197 17.5446 32.9187 17.5445 32.9175 17.5443C32.9133 17.5438 32.9092 17.5434 32.9051 17.5429C32.9037 17.5427 32.9024 17.5426 32.901 17.5424C32.8932 17.5415 32.8854 17.5406 32.8776 17.5398C32.8768 17.5397 32.8753 17.5395 32.8744 17.5394C32.8701 17.5389 32.8661 17.5385 32.862 17.538C32.8604 17.5379 32.8592 17.5377 32.8576 17.5375C32.8503 17.5367 32.8428 17.5359 32.8354 17.5351C32.8338 17.5349 32.8321 17.5347 32.8305 17.5345C32.8265 17.5341 32.8226 17.5336 32.8186 17.5332C32.8172 17.5331 32.8155 17.5329 32.8141 17.5327C32.8068 17.5319 32.7991 17.5312 32.7918 17.5304C32.7904 17.5302 32.7889 17.53 32.7874 17.5299C32.7834 17.5295 32.7791 17.529 32.7751 17.5286C32.7736 17.5284 32.7721 17.5283 32.7705 17.5281C32.7634 17.5274 32.7566 17.5267 32.7494 17.5259C32.7471 17.5256 32.7454 17.5255 32.7431 17.5252C32.7393 17.5248 32.7353 17.5244 32.7317 17.524C32.7296 17.5238 32.7279 17.5236 32.7258 17.5234C32.7194 17.5228 32.713 17.5221 32.7065 17.5214C32.7042 17.5212 32.7014 17.5209 32.6992 17.5207C32.6956 17.5203 32.6919 17.52 32.6884 17.5196C32.6858 17.5193 32.6833 17.5191 32.6807 17.5188C32.6748 17.5182 32.6689 17.5176 32.663 17.517C32.6605 17.5168 32.6577 17.5165 32.6552 17.5162C32.6517 17.5159 32.648 17.5155 32.6445 17.5152C32.6417 17.5149 32.6386 17.5146 32.6359 17.5143C32.6301 17.5138 32.6243 17.5132 32.6186 17.5126C32.6162 17.5124 32.6142 17.5122 32.6118 17.512C32.5995 17.5108 32.5873 17.5096 32.5749 17.5084C32.5723 17.5082 32.5699 17.5079 32.5674 17.5077C32.5622 17.5072 32.5569 17.5066 32.5517 17.5062C32.5485 17.5058 32.5449 17.5055 32.5417 17.5052C32.5382 17.5049 32.5345 17.5046 32.5311 17.5043C32.5285 17.504 32.5259 17.5038 32.5233 17.5035C32.5174 17.503 32.5114 17.5024 32.5055 17.5019C32.5031 17.5016 32.5003 17.5014 32.498 17.5011C32.4945 17.5008 32.4906 17.5004 32.4872 17.5001C32.4844 17.4999 32.4815 17.4996 32.4787 17.4993C32.4734 17.4988 32.468 17.4983 32.4628 17.4979C32.4597 17.4976 32.4566 17.4973 32.4536 17.4971C32.4499 17.4968 32.4463 17.4964 32.4427 17.4961C32.4402 17.4959 32.4379 17.4957 32.4353 17.4955C32.4293 17.4949 32.4236 17.4944 32.4177 17.4939C32.4149 17.4936 32.4122 17.4934 32.4094 17.4932C32.4059 17.4928 32.4022 17.4925 32.3987 17.4922C32.396 17.492 32.3933 17.4917 32.3905 17.4915C32.3847 17.491 32.3791 17.4905 32.3733 17.49C32.3705 17.4897 32.3679 17.4895 32.365 17.4892C32.3615 17.4889 32.3578 17.4886 32.3543 17.4884C32.3513 17.4881 32.3481 17.4878 32.345 17.4876C32.34 17.4872 32.3349 17.4867 32.3299 17.4863C32.3266 17.4861 32.3234 17.4857 32.3201 17.4855C32.3169 17.4853 32.3137 17.4849 32.3105 17.4847C32.3062 17.4844 32.3021 17.484 32.2979 17.4837C32.2939 17.4833 32.2897 17.483 32.2858 17.4826C32.2823 17.4823 32.2791 17.4821 32.2756 17.4818C32.2722 17.4815 32.2688 17.4813 32.2655 17.481C32.2615 17.4807 32.2579 17.4804 32.254 17.4801C32.2495 17.4798 32.2451 17.4794 32.2407 17.4791C32.2374 17.4789 32.2342 17.4786 32.231 17.4783C32.2278 17.4781 32.2246 17.4778 32.2214 17.4775C32.216 17.4771 32.2106 17.4767 32.2053 17.4762C32.2023 17.476 32.1994 17.4758 32.1964 17.4755C32.1931 17.4753 32.1894 17.475 32.1861 17.4747C32.1828 17.4745 32.1797 17.4742 32.1764 17.474C32.171 17.4736 32.1659 17.4732 32.1605 17.4728C32.1574 17.4726 32.1543 17.4723 32.1512 17.4721C32.148 17.4718 32.1445 17.4716 32.1412 17.4714C32.1382 17.4711 32.135 17.4709 32.1321 17.4707C32.1264 17.4703 32.1209 17.4699 32.1153 17.4695C32.1127 17.4693 32.1101 17.4691 32.1074 17.4689C32.1034 17.4686 32.0994 17.4683 32.0955 17.468C32.0927 17.4678 32.09 17.4676 32.0872 17.4674C32.0816 17.467 32.076 17.4666 32.0703 17.4662C32.0677 17.466 32.065 17.4658 32.0623 17.4656C32.0583 17.4653 32.054 17.4651 32.0501 17.4647C32.0476 17.4646 32.0452 17.4644 32.0427 17.4642C32.037 17.4638 32.0314 17.4634 32.0257 17.463C32.0229 17.4628 32.0202 17.4626 32.0174 17.4624C32.0134 17.4622 32.009 17.4619 32.0051 17.4616C32.0021 17.4614 31.999 17.4612 31.9961 17.4609C31.9909 17.4606 31.9855 17.4602 31.9802 17.4599C31.9776 17.4597 31.9751 17.4596 31.9725 17.4594C31.968 17.4591 31.9638 17.4588 31.9594 17.4585C31.9564 17.4584 31.9536 17.4581 31.9507 17.458C31.9455 17.4576 31.9402 17.4572 31.9351 17.4569C31.9326 17.4568 31.9301 17.4566 31.9276 17.4564C31.9229 17.4561 31.9187 17.4559 31.9139 17.4556C31.9105 17.4553 31.907 17.4552 31.9036 17.4549C31.899 17.4546 31.8945 17.4544 31.8901 17.454C31.8874 17.4539 31.8849 17.4537 31.8822 17.4536C31.877 17.4533 31.8718 17.4529 31.8666 17.4526C31.864 17.4525 31.8616 17.4523 31.859 17.4521C31.8542 17.4518 31.8494 17.4516 31.8447 17.4513C31.8423 17.4511 31.8397 17.4509 31.8372 17.4508C31.8317 17.4505 31.8262 17.4501 31.8207 17.4498C31.8182 17.4497 31.8153 17.4495 31.8128 17.4493C31.8083 17.4491 31.8037 17.4488 31.7993 17.4485C31.7966 17.4484 31.7944 17.4482 31.7917 17.4481C31.7858 17.4478 31.7797 17.4474 31.7737 17.4471C31.7717 17.447 31.7698 17.4469 31.7677 17.4468C31.7629 17.4465 31.7581 17.4462 31.7534 17.446C31.751 17.4458 31.7491 17.4457 31.7467 17.4456C31.7407 17.4453 31.7344 17.4449 31.7284 17.4446C31.7263 17.4445 31.724 17.4443 31.722 17.4442C31.7172 17.444 31.7122 17.4437 31.7075 17.4434C31.7052 17.4434 31.7034 17.4432 31.7012 17.4431C31.6949 17.4428 31.689 17.4425 31.6828 17.4422C31.6806 17.4421 31.678 17.4419 31.6759 17.4418C31.6713 17.4415 31.6668 17.4413 31.6623 17.441C31.6599 17.441 31.658 17.4408 31.6556 17.4407C31.6496 17.4404 31.6434 17.4401 31.6373 17.4398C31.6351 17.4397 31.6325 17.4395 31.6304 17.4394C31.6256 17.4392 31.6208 17.439 31.6161 17.4387C31.614 17.4386 31.6121 17.4386 31.61 17.4384C31.6038 17.4381 31.5976 17.4378 31.5913 17.4375C31.5891 17.4374 31.5872 17.4373 31.5849 17.4372C31.5797 17.437 31.5745 17.4367 31.5692 17.4364C31.5676 17.4363 31.5663 17.4363 31.5647 17.4362C31.5585 17.4359 31.5521 17.4355 31.5459 17.4353C31.5435 17.4352 31.5411 17.4351 31.5387 17.435C31.5337 17.4347 31.5285 17.4345 31.5236 17.4343C31.522 17.4342 31.5202 17.4341 31.5186 17.434C31.5124 17.4337 31.5062 17.4335 31.4999 17.4331C31.4975 17.4331 31.495 17.4329 31.4927 17.4328C31.4877 17.4326 31.4825 17.4323 31.4775 17.4322C31.4756 17.4321 31.4741 17.432 31.4722 17.4319C31.4661 17.4317 31.4605 17.4315 31.4545 17.4311C31.4517 17.4311 31.4492 17.4309 31.4465 17.4308C31.4417 17.4306 31.4366 17.4304 31.4319 17.4302C31.4291 17.4301 31.4261 17.4299 31.4234 17.4299C31.4183 17.4296 31.4129 17.4295 31.408 17.4292C31.4056 17.4291 31.4034 17.4291 31.401 17.4289C31.3947 17.4287 31.3879 17.4283 31.3816 17.4281C31.3808 17.4281 31.3802 17.428 31.3794 17.428C31.3734 17.4278 31.3675 17.4276 31.3615 17.4273C31.3595 17.4272 31.3572 17.4272 31.3552 17.4271C31.3487 17.4268 31.3425 17.4266 31.3359 17.4264C31.3345 17.4263 31.3332 17.4263 31.3318 17.4262C31.3262 17.426 31.3208 17.4258 31.3153 17.4256C31.3132 17.4255 31.3111 17.4254 31.309 17.4253C31.3025 17.4251 31.2961 17.4248 31.2895 17.4246C31.2882 17.4245 31.2869 17.4245 31.2856 17.4244C31.2801 17.4242 31.2743 17.424 31.2687 17.4239C31.2668 17.4238 31.265 17.4237 31.2631 17.4237C31.2566 17.4235 31.25 17.4232 31.2434 17.4231C31.242 17.423 31.2404 17.423 31.239 17.4229C31.2331 17.4228 31.2279 17.4225 31.222 17.4224C31.2203 17.4223 31.2186 17.4223 31.2168 17.4222C31.2103 17.422 31.2034 17.4218 31.1969 17.4216C31.1955 17.4215 31.1939 17.4215 31.1924 17.4214C31.1868 17.4212 31.1812 17.4211 31.1756 17.4208C31.1738 17.4208 31.1722 17.4208 31.1705 17.4207C31.1639 17.4205 31.1574 17.4203 31.1508 17.4201C31.149 17.42 31.1472 17.42 31.1454 17.42C31.1401 17.4198 31.1342 17.4196 31.1289 17.4195C31.1273 17.4194 31.1256 17.4194 31.124 17.4193C31.1172 17.4192 31.1108 17.4189 31.1039 17.4188C31.1023 17.4187 31.1008 17.4187 31.0992 17.4186C31.0933 17.4185 31.0873 17.4183 31.0814 17.4181C31.0803 17.4181 31.0789 17.4181 31.0778 17.4181C31.0709 17.4179 31.0645 17.4177 31.0577 17.4176C31.0559 17.4175 31.0541 17.4175 31.0523 17.4174C31.0464 17.4173 31.0404 17.4171 31.0345 17.4169C31.0333 17.4169 31.0324 17.4169 31.0311 17.4169C31.0242 17.4167 31.0178 17.4165 31.0109 17.4164C31.0092 17.4164 31.0072 17.4163 31.0055 17.4162C30.9996 17.4161 30.9935 17.416 30.9876 17.4158C30.9865 17.4158 30.9855 17.4157 30.9843 17.4157C30.9777 17.4156 30.9711 17.4154 30.9645 17.4153C30.9624 17.4153 30.9606 17.4153 30.9584 17.4152C30.9525 17.415 30.9467 17.4149 30.9408 17.4148C30.939 17.4148 30.9371 17.4147 30.9353 17.4147C30.9294 17.4146 30.9234 17.4145 30.9175 17.4144C30.9155 17.4144 30.9136 17.4143 30.9116 17.4143C30.905 17.4141 30.898 17.4141 30.8914 17.4139C30.8907 17.4139 30.8896 17.4139 30.889 17.4138C30.8828 17.4137 30.8767 17.4136 30.8705 17.4135C30.8688 17.4135 30.8665 17.4134 30.8648 17.4134C30.8579 17.4133 30.8514 17.4132 30.8445 17.4131C30.8434 17.4131 30.8425 17.4131 30.8414 17.413C30.8352 17.4129 30.8289 17.4128 30.8228 17.4127C30.8212 17.4127 30.8198 17.4126 30.8181 17.4126C30.8111 17.4125 30.8044 17.4124 30.7975 17.4123C30.7964 17.4123 30.7948 17.4123 30.7937 17.4122C30.7878 17.4121 30.782 17.4121 30.776 17.412C30.7744 17.412 30.7724 17.4119 30.7708 17.4119C30.7641 17.4118 30.7574 17.4117 30.7507 17.4117C30.7491 17.4117 30.7474 17.4117 30.7458 17.4116C30.7401 17.4115 30.7342 17.4114 30.7285 17.4113C30.7271 17.4113 30.7253 17.4113 30.7238 17.4113C30.7169 17.4112 30.7102 17.4111 30.7032 17.411C30.7018 17.411 30.7001 17.411 30.6987 17.4109C30.6927 17.4109 30.6872 17.4109 30.6813 17.4108C30.6798 17.4108 30.6782 17.4108 30.6767 17.4107C30.6697 17.4106 30.6629 17.4106 30.656 17.4106C30.6545 17.4106 30.6532 17.4106 30.6517 17.4106C30.6454 17.4105 30.639 17.4105 30.6328 17.4104C30.6316 17.4104 30.6308 17.4104 30.6296 17.4104C30.6224 17.4103 30.6158 17.4103 30.6085 17.4102C30.6071 17.4102 30.6054 17.4102 30.6039 17.4102C30.5977 17.4102 30.5911 17.4102 30.5849 17.4102C30.5841 17.4102 30.5831 17.4102 30.5823 17.4102C30.5754 17.4102 30.5683 17.4101 30.5613 17.4101C30.5597 17.4101 30.5579 17.4101 30.5562 17.4101C30.55 17.4101 30.5434 17.41 30.5372 17.41C30.5364 17.41 30.5355 17.41 30.5347 17.41C30.5277 17.41 30.5209 17.4099 30.5138 17.4099C30.512 17.4099 30.5102 17.4099 30.5083 17.4099C30.5019 17.4099 30.4953 17.4099 30.4888 17.4099C30.4884 17.4099 30.4877 17.4099 30.4872 17.4099C30.4801 17.4099 30.4732 17.4099 30.4662 17.4099C30.4643 17.4099 30.4627 17.4099 30.4609 17.4099C30.4553 17.4106 30.448 17.4106 30.441 17.4106Z" fill="#BD7F00"/>
<path d="M38.903 35.9709C38.1493 35.9709 37.5379 35.352 37.5379 34.5886C37.5379 33.8252 38.1493 33.2063 38.903 33.2063C39.6559 33.2063 40.2673 33.8252 40.2673 34.5886C40.2673 35.3521 39.6559 35.9709 38.903 35.9709ZM38.3399 30.7234C33.2931 30.7234 32.8417 38.8304 32.9222 44.2147C33.3459 44.5413 33.5739 45.0269 33.5739 45.6222C33.5739 46.2055 33.2944 46.7475 33.0058 47.1516C33.0093 47.2563 33.0125 47.3569 33.0154 47.4538C33.7957 46.8524 34.4385 46.0153 35.1003 45.1527C35.6585 44.4252 36.2355 43.6731 36.9606 42.9481C39.2522 40.6564 49.2992 33.8094 49.4004 33.7405L50.8733 32.7378C50.8728 32.7375 44.2129 30.7234 38.3399 30.7234Z" fill="#B19267"/>
<path d="M30.4461 48.7696C30.4445 48.7696 30.4427 48.7696 30.441 48.7696C30.4427 48.7696 30.4445 48.7696 30.4461 48.7696ZM30.4513 48.7696C30.4501 48.7696 30.4489 48.7696 30.4477 48.7696C30.4489 48.7696 30.4501 48.7696 30.4513 48.7696ZM30.4564 48.7695C30.4553 48.7695 30.4542 48.7695 30.453 48.7695C30.4542 48.7696 30.4553 48.7695 30.4564 48.7695ZM30.4617 48.7695C30.4606 48.7695 30.4594 48.7695 30.4583 48.7695C30.4594 48.7695 30.4605 48.7695 30.4617 48.7695ZM30.4675 48.7694C30.4663 48.7694 30.4648 48.7694 30.4635 48.7695C30.4648 48.7694 30.4661 48.7694 30.4675 48.7694ZM30.479 48.7692C30.4755 48.7693 30.4719 48.7694 30.4684 48.7694C30.472 48.7694 30.4755 48.7693 30.479 48.7692ZM30.4841 48.7691C30.4826 48.7691 30.4812 48.7692 30.4797 48.7692C30.4812 48.7692 30.4826 48.7691 30.4841 48.7691ZM30.4896 48.769C30.4882 48.769 30.4869 48.769 30.4854 48.769C30.4869 48.769 30.4883 48.769 30.4896 48.769ZM30.4953 48.7688C30.4936 48.7689 30.4921 48.7689 30.4904 48.769C30.4921 48.7689 30.4937 48.7689 30.4953 48.7688ZM31.5044 48.4819C31.2007 48.6397 30.8562 48.7578 30.4957 48.7687C30.8564 48.7578 31.2008 48.6397 31.5044 48.4819Z" fill="#BDBDBF"/>
<path d="M30.441 43.6882V48.7697C30.4427 48.7697 30.4445 48.7697 30.4461 48.7697C30.4467 48.7697 30.4473 48.7697 30.4477 48.7697C30.4489 48.7697 30.4501 48.7697 30.4513 48.7697C30.4519 48.7697 30.4525 48.7697 30.4532 48.7697C30.4543 48.7697 30.4554 48.7697 30.4566 48.7697C30.4572 48.7697 30.4578 48.7697 30.4584 48.7697C30.4595 48.7697 30.4607 48.7697 30.4618 48.7697C30.4624 48.7697 30.463 48.7697 30.4636 48.7697C30.4649 48.7697 30.4663 48.7697 30.4676 48.7697C30.4679 48.7697 30.4683 48.7697 30.4687 48.7697C30.4722 48.7696 30.4758 48.7695 30.4793 48.7695C30.4795 48.7695 30.4797 48.7695 30.4799 48.7695C30.4814 48.7695 30.4829 48.7694 30.4843 48.7694C30.4847 48.7694 30.4852 48.7694 30.4856 48.7694C30.487 48.7694 30.4884 48.7693 30.4898 48.7693C30.4901 48.7693 30.4904 48.7693 30.4906 48.7693C30.4923 48.7693 30.4938 48.7693 30.4955 48.7692C30.4956 48.7692 30.4957 48.7692 30.4958 48.7692C30.8563 48.7582 31.2009 48.6401 31.5045 48.4824C31.8522 48.3018 32.1462 48.069 32.3501 47.8852C32.3505 47.885 32.3509 47.8848 32.3513 47.8846C32.4185 47.824 32.4759 47.7688 32.5222 47.7226C32.6435 47.6013 32.8267 47.4033 33.0062 47.1519C33.2947 46.7479 33.5743 46.2059 33.5743 45.6226C33.5743 45.0272 33.3463 44.5416 32.9226 44.215C32.7953 44.1169 32.6502 44.0331 32.4885 43.965C32.0215 43.7683 31.4284 43.6882 30.441 43.6882Z" fill="#191310"/>
</svg>
