<svg width="170" height="170" viewBox="0 0 170 170" fill="none" xmlns="http://www.w3.org/2000/svg">
<path d="M85 169.999C131.944 169.999 170 131.944 170 84.9996C170 38.0556 131.944 0 85 0C38.0558 0 0 38.0556 0 84.9996C0 131.944 38.0558 169.999 85 169.999Z" fill="#A3EBFF"/>
<path d="M168.872 90.685C168.872 89.1035 168.825 87.5334 168.74 85.9738L127.424 41.7454V43.2542L65.3844 100.088L41.2424 81.794L39.5789 83.1942L36.7157 85.6044L30.6802 90.685L40.7394 82.2173L28.2236 90.685L46.4854 114.219C51.7979 119.863 79.2049 166.112 84.1463 170C124.513 170 168.872 137.629 168.872 90.685Z" fill="#8AD9EE"/>
<path d="M33 84.4586L75.0333 127L130 45" stroke="#FFC85C" stroke-width="15"/>
<path d="M35.5 82L71.5 119.5L126 42" stroke="#FEFDC8" stroke-opacity="0.8" stroke-width="10"/>
</svg>
